<svg width="1000" height="1000" viewBox="0 0 1000 1000" fill="none" xmlns="http://www.w3.org/2000/svg">
<rect width="1000" height="1000" rx="12" fill="#FAFAFA"/>
<path d="M296 475.5V544H284.625V475.5H296ZM397.762 474.25C403.095 474.25 407.845 475.375 412.012 477.625C416.178 479.792 419.47 483.083 421.887 487.5C424.303 491.917 425.512 497.292 425.512 503.625V544H414.262V505.25C414.262 498.417 412.553 493.208 409.137 489.625C405.803 485.958 401.262 484.125 395.512 484.125C389.595 484.125 384.887 486.042 381.387 489.875C377.887 493.625 376.137 499.083 376.137 506.25V544H364.887V505.25C364.887 498.417 363.178 493.208 359.762 489.625C356.428 485.958 351.887 484.125 346.137 484.125C340.22 484.125 335.512 486.042 332.012 489.875C328.512 493.625 326.762 499.083 326.762 506.25V544H315.387V475.5H326.762V485.375C329.012 481.792 332.012 479.042 335.762 477.125C339.595 475.208 343.803 474.25 348.387 474.25C354.137 474.25 359.22 475.542 363.637 478.125C368.053 480.708 371.345 484.5 373.512 489.5C375.428 484.667 378.595 480.917 383.012 478.25C387.428 475.583 392.345 474.25 397.762 474.25ZM458.046 484.875V525.25C458.046 528.583 458.754 530.958 460.171 532.375C461.588 533.708 464.046 534.375 467.546 534.375H475.921V544H465.671C459.338 544 454.588 542.542 451.421 539.625C448.254 536.708 446.671 531.917 446.671 525.25V484.875H437.796V475.5H446.671V458.25H458.046V475.5H475.921V484.875H458.046ZM519.578 545.125C513.161 545.125 507.328 543.667 502.078 540.75C496.911 537.833 492.828 533.708 489.828 528.375C486.911 522.958 485.453 516.708 485.453 509.625C485.453 502.625 486.953 496.458 489.953 491.125C493.036 485.708 497.203 481.583 502.453 478.75C507.703 475.833 513.578 474.375 520.078 474.375C526.578 474.375 532.453 475.833 537.703 478.75C542.953 481.583 547.078 485.667 550.078 491C553.161 496.333 554.703 502.542 554.703 509.625C554.703 516.708 553.12 522.958 549.953 528.375C546.87 533.708 542.661 537.833 537.328 540.75C531.995 543.667 526.078 545.125 519.578 545.125ZM519.578 535.125C523.661 535.125 527.495 534.167 531.078 532.25C534.661 530.333 537.536 527.458 539.703 523.625C541.953 519.792 543.078 515.125 543.078 509.625C543.078 504.125 541.995 499.458 539.828 495.625C537.661 491.792 534.828 488.958 531.328 487.125C527.828 485.208 524.036 484.25 519.953 484.25C515.786 484.25 511.953 485.208 508.453 487.125C505.036 488.958 502.286 491.792 500.203 495.625C498.12 499.458 497.078 504.125 497.078 509.625C497.078 515.208 498.078 519.917 500.078 523.75C502.161 527.583 504.911 530.458 508.328 532.375C511.745 534.208 515.495 535.125 519.578 535.125ZM565.409 509.5C565.409 502.5 566.826 496.375 569.659 491.125C572.493 485.792 576.368 481.667 581.284 478.75C586.284 475.833 591.868 474.375 598.034 474.375C603.368 474.375 608.326 475.625 612.909 478.125C617.493 480.542 620.993 483.75 623.409 487.75V451.5H634.909V544H623.409V531.125C621.159 535.208 617.826 538.583 613.409 541.25C608.993 543.833 603.826 545.125 597.909 545.125C591.826 545.125 586.284 543.625 581.284 540.625C576.368 537.625 572.493 533.417 569.659 528C566.826 522.583 565.409 516.417 565.409 509.5ZM623.409 509.625C623.409 504.458 622.368 499.958 620.284 496.125C618.201 492.292 615.368 489.375 611.784 487.375C608.284 485.292 604.409 484.25 600.159 484.25C595.909 484.25 592.034 485.25 588.534 487.25C585.034 489.25 582.243 492.167 580.159 496C578.076 499.833 577.034 504.333 577.034 509.5C577.034 514.75 578.076 519.333 580.159 523.25C582.243 527.083 585.034 530.042 588.534 532.125C592.034 534.125 595.909 535.125 600.159 535.125C604.409 535.125 608.284 534.125 611.784 532.125C615.368 530.042 618.201 527.083 620.284 523.25C622.368 519.333 623.409 514.792 623.409 509.625ZM684.007 545.125C677.59 545.125 671.757 543.667 666.507 540.75C661.34 537.833 657.257 533.708 654.257 528.375C651.34 522.958 649.882 516.708 649.882 509.625C649.882 502.625 651.382 496.458 654.382 491.125C657.465 485.708 661.632 481.583 666.882 478.75C672.132 475.833 678.007 474.375 684.507 474.375C691.007 474.375 696.882 475.833 702.132 478.75C707.382 481.583 711.507 485.667 714.507 491C717.59 496.333 719.132 502.542 719.132 509.625C719.132 516.708 717.549 522.958 714.382 528.375C711.299 533.708 707.09 537.833 701.757 540.75C696.424 543.667 690.507 545.125 684.007 545.125ZM684.007 535.125C688.09 535.125 691.924 534.167 695.507 532.25C699.09 530.333 701.965 527.458 704.132 523.625C706.382 519.792 707.507 515.125 707.507 509.625C707.507 504.125 706.424 499.458 704.257 495.625C702.09 491.792 699.257 488.958 695.757 487.125C692.257 485.208 688.465 484.25 684.382 484.25C680.215 484.25 676.382 485.208 672.882 487.125C669.465 488.958 666.715 491.792 664.632 495.625C662.549 499.458 661.507 504.125 661.507 509.625C661.507 515.208 662.507 519.917 664.507 523.75C666.59 527.583 669.34 530.458 672.757 532.375C676.174 534.208 679.924 535.125 684.007 535.125Z" fill="#3B82F6"/>
<path d="M290.14 464L275 448.749L277.906 445.821L290.14 458.145L316.094 432L319 434.928L290.14 464Z" fill="#3B82F6"/>
</svg>
